<svg width="300" height="300" viewBox="0 0 300 300" fill="none" xmlns="http://www.w3.org/2000/svg">
  <!-- Light plate so the mark reads on dark tab bars and home-screen tiles -->
  <rect width="300" height="300" rx="68" fill="#eceff4"/>
  <mask id="mask0_favicon" style="mask-type:luminance" maskUnits="userSpaceOnUse" x="39" y="39" width="221" height="221">
    <path d="M260 39H39V260H260V39Z" fill="white"/>
  </mask>
  <g mask="url(#mask0_favicon)">
    <path d="M218.839 89.9221L89.9221 218.839C89.7379 219.023 89.6458 219.115 89.4617 219.207C85.9625 216.26 82.7396 213.037 79.7929 209.538C65.7963 193.424 57.4167 172.429 57.4167 149.5C57.4167 98.67 98.67 57.4167 149.5 57.4167C172.429 57.4167 193.424 65.7962 209.538 79.7929C213.038 82.7396 216.26 85.9625 219.207 89.4617C219.115 89.6458 219.023 89.7379 218.839 89.9221Z" fill="#12151a"/>
    <path d="M241.584 149.507C241.584 200.061 200.055 241.591 149.501 241.591C135.688 241.591 122.613 238.552 110.826 233.027C105.117 230.357 104.012 222.714 108.432 218.202L218.195 108.439C222.615 104.019 230.35 105.124 233.021 110.833C238.546 122.527 241.584 135.695 241.584 149.507Z" fill="#12151a"/>
    <path d="M239.465 59.5427C236.702 56.7802 232.19 56.7802 229.428 59.5427L59.5337 229.529C56.7712 232.291 56.7712 236.804 59.5337 239.566C60.915 240.855 62.6645 241.592 64.5062 241.592C66.3479 241.592 68.0975 240.855 69.4787 239.474L239.465 69.4877C242.319 66.7252 242.319 62.3052 239.465 59.5427Z" fill="#12151a"/>
  </g>
</svg>
